<?xml version="1.0" standalone="no"?>
<!DOCTYPE svg PUBLIC "-//W3C//DTD SVG 20010904//EN"
 "http://www.w3.org/TR/2001/REC-SVG-20010904/DTD/svg10.dtd">
<svg version="1.0" xmlns="http://www.w3.org/2000/svg"
 width="16" height="16" viewBox="0 0 16 16"
 preserveAspectRatio="xMidYMid meet">
<metadata>
Created by potrace 1.16, written by Peter Selinger 2001-2019
</metadata>
<g transform="translate(16,16) scale(1,1)"
fill="#7A6981" stroke="none">
<path d="M5936 9198 c-137 -18 -55 57 -1423 -1311 -1368 -1368 -1289 -1282
-1312 -1424 -12 -78 0 -167 35 -243 22 -48 179 -209 1277 -1307 1434 -1434
1291 -1308 1487 -1308 107 0 119 2 175 29 159 79 248 247 223 426 -18 138 30
84 -937 1052 l-885 888 2369 2 2370 3 60 29 c77 38 153 114 191 191 27 56 29
68 29 175 0 107 -2 119 -29 175 -17 33 -53 83 -80 111 -28 27 -78 63 -111 80
l-60 29 -2370 3 -2370 2 881 883 c960 960 924 920 942 1055 38 279 -182 499
-462 460z"/>
</g>
</svg>
