<svg width="24" height="24" viewBox="0 0 24 24" fill="none" xmlns="http://www.w3.org/2000/svg">
<mask id="mask0_7788_239" style="mask-type:alpha" maskUnits="userSpaceOnUse" x="2" y="2" width="20" height="20">
<path d="M10 4C10 3.44772 9.55228 3 9 3H4C3.44772 3 3 3.44772 3 4V9C3 9.55228 3.44772 10 4 10H9C9.55228 10 10 9.55228 10 9V4ZM10 15C10 14.4477 9.55228 14 9 14H4C3.44772 14 3 14.4477 3 15V20C3 20.5523 3.44772 21 4 21H9C9.55228 21 10 20.5523 10 20V15ZM21 4C21 3.44772 20.5523 3 20 3H15C14.4477 3 14 3.44772 14 4V9C14 9.55228 14.4477 10 15 10H20C20.5523 10 21 9.55228 21 9V4Z" fill="white" stroke="white" stroke-width="2" stroke-linecap="round" stroke-linejoin="round"/>
<path d="M14 14L21 21M14 14H21H14ZM14 14V21V14Z" stroke="white" stroke-width="2" stroke-linecap="round" stroke-linejoin="round"/>
</mask>
<g mask="url(#mask0_7788_239)">
<path d="M0 0H24V24H0V0Z" fill="#5A007E"/>
</g>
</svg>
