<svg width="183" height="35" viewBox="0 0 183 35" fill="none" xmlns="http://www.w3.org/2000/svg">
<g opacity="0.8">
<path fill-rule="evenodd" clip-rule="evenodd" d="M67.8805 20.5063L67.2108 20.5014C66.9036 20.5014 66.75 20.348 66.75 20.0413V7.15916C66.75 6.85247 66.9036 6.6991 67.2108 6.6991H70.3454C70.6528 6.6991 70.8064 6.85247 70.8064 7.15916L70.8045 7.59387C69.6124 7.88371 68.6842 9.09611 68.6099 10.6079C68.5503 11.8221 69.0567 12.922 69.8571 13.5443C69.2609 13.9492 68.8225 14.6331 68.7127 15.4521C68.5931 16.3438 68.8905 17.1886 69.4424 17.7471C68.8854 17.9911 68.3782 18.4898 68.0895 19.1473C67.8855 19.6122 67.8217 20.0856 67.8805 20.5063Z" fill="black"/>
<path d="M67.8812 20.6112L68.0025 20.6121L67.986 20.4921C67.9299 20.092 67.9902 19.638 68.187 19.1895C68.4657 18.5545 68.9546 18.076 69.486 17.8432L69.6255 17.7821L69.5185 17.6738C68.9903 17.1391 68.7026 16.3269 68.818 15.4662L68.7141 15.4523L68.818 15.4662C68.924 14.6758 69.3466 14.0188 69.9176 13.6311L70.0366 13.5502L69.9231 13.4619C69.1521 12.8625 68.6579 11.7967 68.7162 10.6132C68.7886 9.13783 69.6929 7.97247 70.8307 7.69579L70.9105 7.6764L70.9109 7.59448L70.9128 7.15978V7.15933C70.9128 6.98984 70.8702 6.84348 70.7667 6.74024C70.6632 6.63699 70.5168 6.59454 70.3468 6.59454H67.2122C67.0425 6.59454 66.8958 6.63699 66.7923 6.74024C66.6889 6.84348 66.6465 6.98984 66.6465 7.15933V20.0415C66.6465 20.211 66.6889 20.3573 66.7923 20.4606C66.8958 20.5638 67.0423 20.6062 67.212 20.6063H67.2122L67.8812 20.6112Z" stroke="white" stroke-opacity="0.8"/>
</g>
<g opacity="0.8">
<path fill-rule="evenodd" clip-rule="evenodd" d="M68.8465 19.5814C68.618 20.102 68.7928 20.6516 69.2366 20.8081C69.6802 20.9646 70.2261 20.669 70.4546 20.1484C70.6831 19.6279 70.5083 19.0782 70.0645 18.9217C69.6209 18.7652 69.075 19.0609 68.8465 19.5814ZM69.6742 15.7704C69.5216 16.5763 69.9474 17.3329 70.6244 17.4589C71.3013 17.5849 71.975 17.0329 72.1275 16.2269C72.2801 15.421 71.8543 14.6644 71.1771 14.5385C70.5001 14.4125 69.8267 14.9645 69.6742 15.7704ZM69.504 11.0204C69.4498 12.1232 70.1595 13.0716 71.0879 13.1372C72.0163 13.2027 72.8142 12.3606 72.8683 11.2579C72.9224 10.1551 72.2127 9.20667 71.2843 9.14115C70.356 9.07564 69.5581 9.91774 69.504 11.0204Z" fill="black"/>
<path d="M70.5514 20.1906L70.4553 20.1485L70.5514 20.1906ZM70.5514 20.1906C70.7957 19.6343 70.6203 19.0065 70.1003 18.8231C69.5895 18.6431 68.9946 18.9848 68.7511 19.5395C68.5069 20.0958 68.6823 20.7236 69.2023 20.907C69.7131 21.087 70.308 20.7453 70.5514 20.1906ZM71.1972 14.4356C70.4469 14.2961 69.7316 14.9061 69.5716 15.7511C69.4117 16.5961 69.8554 17.4223 70.6058 17.562C71.356 17.7016 72.0714 17.0914 72.2313 16.2465C72.3912 15.4015 71.9476 14.5753 71.1972 14.4356ZM69.4 11.0155C69.3437 12.158 70.0803 13.1711 71.0813 13.2418C72.0852 13.3126 72.9177 12.4063 72.9738 11.2631C73.03 10.1206 72.2934 9.10746 71.2924 9.03682C70.2885 8.96598 69.456 9.87232 69.4 11.0155Z" stroke="white" stroke-opacity="0.8"/>
</g>
<g opacity="0.8">
<path fill-rule="evenodd" clip-rule="evenodd" d="M68.2571 24.194C67.0801 24.6192 66.4249 25.8627 66.7949 26.9692C67.1648 28.0757 68.421 28.6288 69.5981 28.2036C70.7753 27.7785 71.4305 26.535 71.0603 25.4285C70.6903 24.322 69.4342 23.7688 68.2571 24.194ZM29.8415 12.9506C30.1488 12.9506 30.3024 13.1039 30.3024 13.4107V27.8264C30.3024 28.1331 30.1488 28.2864 29.8415 28.2864H26.7991C26.4918 28.2864 26.3381 28.1331 26.3381 27.8264V13.4107C26.3381 13.1039 26.4918 12.9506 26.7991 12.9506H29.8415ZM42.349 12.8279C45.6987 12.8279 46.8666 15.0976 46.8666 18.2261V27.8264C46.8666 28.1331 46.7127 28.2864 46.4055 28.2864H43.3631C43.0558 28.2864 42.9022 28.1331 42.9022 27.8264V17.766C42.9022 16.7232 42.1339 16.3551 41.2427 16.3551H40.8739C39.5525 16.3551 38.5998 16.9072 38.2618 17.4593V27.8264C38.2618 28.1331 38.1081 28.2864 37.8008 28.2864H34.7584C34.4511 28.2864 34.2975 28.1331 34.2975 27.8264V13.4107C34.2975 13.1039 34.4511 12.9506 34.7584 12.9506H37.8008C38.1081 12.9506 38.2618 13.1039 38.2618 13.4107V14.7602C38.7227 13.9934 39.8905 12.8279 42.1646 12.8279H42.349ZM54.0575 6.81622C54.365 6.81622 54.5186 6.96959 54.5186 7.27629V17.9194L58.8822 13.3186C59.0667 13.1039 59.3433 12.9506 59.5892 12.9506H62.7544C63.154 12.9506 63.5227 13.4107 62.9695 13.9934L58.3905 18.9009L63.7378 27.4582C63.9222 27.7956 63.8914 28.2864 63.369 28.2864H60.4802C60.0809 28.2864 59.712 28.1638 59.4662 27.7343L55.717 21.5386L54.5186 22.7349V27.8264C54.5186 28.1331 54.365 28.2864 54.0575 28.2864H51.0151C50.7079 28.2864 50.5543 28.1331 50.5543 27.8264V7.27629C50.5543 6.96959 50.7079 6.81622 51.0151 6.81622H54.0575ZM27.724 7.54495C26.5704 7.89307 25.8762 9.05481 26.1747 10.1376C26.4733 11.2204 27.6522 11.8169 28.8058 11.4688C29.9595 11.1206 30.6536 9.9589 30.3551 8.87611C30.0566 7.79329 28.8776 7.19683 27.724 7.54495Z" fill="black"/>
<path d="M63.0453 14.0656L58.5217 18.9137L63.8266 27.4031L63.828 27.4056L63.8295 27.4083C63.9309 27.5939 63.9789 27.8302 63.9185 28.0293C63.8876 28.1311 63.828 28.2239 63.7328 28.2905C63.6379 28.3567 63.5158 28.3913 63.3687 28.3913H60.4799C60.27 28.3913 60.0608 28.3592 59.8692 28.2656C59.6766 28.1716 59.5078 28.0187 59.3754 27.7876C59.3752 27.7872 59.375 27.7868 59.3748 27.7864L55.6961 21.7074L54.6231 22.7784V27.8266C54.6231 27.996 54.5805 28.1424 54.4771 28.2457C54.3736 28.349 54.2269 28.3913 54.0572 28.3913H51.0147C50.845 28.3913 50.6983 28.349 50.5948 28.2457C50.4914 28.1424 50.449 27.996 50.449 27.8266V7.27646C50.449 7.10697 50.4914 6.96061 50.5948 6.85736C50.6983 6.75412 50.845 6.71167 51.0147 6.71167H54.0572C54.2269 6.71167 54.3736 6.75412 54.4771 6.85736C54.5805 6.96061 54.6231 7.10697 54.6231 7.27646V17.6566L58.804 13.2487C59.0023 13.0188 59.3049 12.846 59.5888 12.846H62.754C62.9914 12.846 63.2262 12.9825 63.3166 13.2158C63.4094 13.4545 63.338 13.7569 63.0453 14.0656ZM63.0453 14.0656C63.0455 14.0655 63.0451 14.0657 63.0453 14.0656ZM27.6933 7.44488L27.7236 7.54512M27.6933 7.44488C26.4915 7.80752 25.7579 9.0218 26.0732 10.1656C26.3893 11.3118 27.6326 11.9323 28.8359 11.5692C30.0376 11.2065 30.7713 9.99223 30.4559 8.84848C30.1399 7.70225 28.8965 7.08179 27.6933 7.44488ZM29.8411 12.846H26.7987C26.6289 12.846 26.4822 12.8885 26.3788 12.9917C26.2753 13.095 26.2328 13.2413 26.2328 13.4108V27.8266C26.2328 27.996 26.2753 28.1424 26.3788 28.2457C26.4822 28.349 26.6289 28.3913 26.7987 28.3913H29.8411C30.0109 28.3913 30.1576 28.349 30.261 28.2457C30.3644 28.1424 30.407 27.996 30.407 27.8266V13.4108C30.407 13.2413 30.3644 13.095 30.261 12.9917C30.1576 12.8885 30.0109 12.846 29.8411 12.846ZM68.2211 24.0957C66.9966 24.538 66.3049 25.8361 66.695 27.0026C67.086 28.1716 68.4076 28.7452 69.6336 28.3025C70.8579 27.8601 71.5497 26.562 71.1596 25.3955C70.7687 24.2266 69.4468 23.6529 68.2211 24.0957ZM46.9711 18.2263C46.9711 16.652 46.6777 15.2761 45.9479 14.2917C45.2136 13.3014 44.0498 12.7233 42.3486 12.7233H42.1642C40.1156 12.7233 38.9406 13.654 38.3663 14.418V13.4108C38.3663 13.2413 38.3238 13.095 38.2204 12.9917C38.1169 12.8885 37.9703 12.846 37.8004 12.846H34.7581C34.5882 12.846 34.4416 12.8885 34.3381 12.9917C34.2347 13.095 34.1922 13.2413 34.1922 13.4108V27.8266C34.1922 27.996 34.2347 28.1424 34.3381 28.2457C34.4416 28.349 34.5882 28.3913 34.7581 28.3913H37.8004C37.9703 28.3913 38.1169 28.349 38.2204 28.2457C38.3238 28.1424 38.3663 27.996 38.3663 27.8266V17.4897C38.6931 16.9856 39.5964 16.46 40.8735 16.46H41.2423C41.676 16.46 42.0656 16.55 42.3442 16.7541C42.6175 16.9544 42.7969 17.2739 42.7969 17.7662V27.8266C42.7969 27.996 42.8394 28.1424 42.9428 28.2457C43.0463 28.349 43.1929 28.3913 43.3628 28.3913H46.4051C46.5749 28.3913 46.7216 28.349 46.8251 28.2457C46.9285 28.1424 46.9711 27.996 46.9711 27.8266V18.2263Z" stroke="white" stroke-opacity="0.8"/>
</g>
<path d="M89.2715 27H79.0996V9.86719H89.2715V13.582H83.7285V16.2773H88.8613V19.9922H83.7285V23.2266H89.2715V27ZM94.8145 20.2266L90.7598 13.7227H95.9629L97.9785 17.4492L100.041 13.7227H105.256L101.096 20.2266L105.42 27H100.217L97.9785 22.9688L95.752 27H90.5371L94.8145 20.2266ZM115.229 13.4883C116.697 13.4883 117.85 14.0781 118.686 15.2578C119.521 16.4297 119.939 18.1211 119.939 20.332C119.939 21.8398 119.729 23.1094 119.307 24.1406C118.885 25.1641 118.307 25.9375 117.572 26.4609C116.846 26.9766 116.018 27.2344 115.088 27.2344C114.463 27.2344 113.932 27.1562 113.494 27C113.064 26.8438 112.705 26.6484 112.416 26.4141C112.135 26.1797 111.896 25.9414 111.701 25.6992H111.561C111.6 26.0039 111.631 26.332 111.654 26.6836C111.686 27.0352 111.701 27.4453 111.701 27.9141V32.7656H107.119V13.7227H110.846L111.49 15.4102H111.701C111.92 15.0664 112.186 14.75 112.498 14.4609C112.811 14.1641 113.189 13.9297 113.635 13.7578C114.088 13.5781 114.619 13.4883 115.229 13.4883ZM113.506 17.0859C113.061 17.0859 112.709 17.1914 112.451 17.4023C112.193 17.6133 112.006 17.9336 111.889 18.3633C111.779 18.7852 111.717 19.3125 111.701 19.9453V20.3086C111.701 21.0117 111.756 21.6055 111.865 22.0898C111.975 22.5664 112.162 22.9297 112.428 23.1797C112.693 23.4219 113.061 23.543 113.529 23.543C113.912 23.543 114.232 23.4336 114.49 23.2148C114.748 22.9961 114.943 22.6484 115.076 22.1719C115.209 21.6953 115.275 21.0664 115.275 20.2852C115.275 19.1211 115.123 18.2969 114.818 17.8125C114.521 17.3281 114.084 17.0859 113.506 17.0859ZM127.146 27H122.564V8.76562H127.146V27ZM143.002 20.332C143.002 21.4414 142.85 22.4258 142.545 23.2852C142.24 24.1445 141.799 24.8672 141.221 25.4531C140.643 26.0391 139.943 26.4844 139.123 26.7891C138.303 27.0859 137.377 27.2344 136.346 27.2344C135.385 27.2344 134.502 27.0859 133.697 26.7891C132.9 26.4844 132.205 26.0391 131.611 25.4531C131.018 24.8672 130.557 24.1445 130.229 23.2852C129.908 22.4258 129.748 21.4414 129.748 20.332C129.748 18.8633 130.014 17.6211 130.545 16.6055C131.084 15.5898 131.85 14.8164 132.842 14.2852C133.842 13.7539 135.033 13.4883 136.416 13.4883C137.689 13.4883 138.822 13.7539 139.814 14.2852C140.807 14.8164 141.584 15.5898 142.146 16.6055C142.717 17.6211 143.002 18.8633 143.002 20.332ZM134.4 20.332C134.4 21.0898 134.467 21.7305 134.6 22.2539C134.732 22.7695 134.943 23.1641 135.232 23.4375C135.529 23.7031 135.916 23.8359 136.393 23.8359C136.869 23.8359 137.248 23.7031 137.529 23.4375C137.811 23.1641 138.014 22.7695 138.139 22.2539C138.271 21.7305 138.338 21.0898 138.338 20.332C138.338 19.5742 138.271 18.9414 138.139 18.4336C138.014 17.9258 137.807 17.543 137.518 17.2852C137.236 17.0273 136.854 16.8984 136.369 16.8984C135.674 16.8984 135.17 17.1875 134.857 17.7656C134.553 18.3438 134.4 19.1992 134.4 20.332ZM153.643 13.4883C153.893 13.4883 154.154 13.5078 154.428 13.5469C154.701 13.5781 154.904 13.6055 155.037 13.6289L154.627 17.9531C154.479 17.9141 154.287 17.8828 154.053 17.8594C153.818 17.8281 153.49 17.8125 153.068 17.8125C152.779 17.8125 152.471 17.8398 152.143 17.8945C151.814 17.9492 151.502 18.0664 151.205 18.2461C150.916 18.418 150.678 18.6836 150.49 19.043C150.303 19.3945 150.209 19.8711 150.209 20.4727V27H145.627V13.7227H149.037L149.752 15.8438H149.975C150.217 15.4062 150.525 15.0117 150.9 14.6602C151.283 14.3008 151.709 14.0156 152.178 13.8047C152.654 13.5938 153.143 13.4883 153.643 13.4883ZM162.877 13.4883C164.166 13.4883 165.279 13.7148 166.217 14.168C167.154 14.6133 167.877 15.2852 168.385 16.1836C168.893 17.082 169.146 18.207 169.146 19.5586V21.5977H160.955C160.994 22.293 161.252 22.8633 161.729 23.3086C162.213 23.7539 162.924 23.9766 163.861 23.9766C164.689 23.9766 165.447 23.8945 166.135 23.7305C166.83 23.5664 167.545 23.3125 168.279 22.9688V26.2617C167.639 26.5977 166.939 26.8438 166.182 27C165.424 27.1562 164.467 27.2344 163.311 27.2344C161.975 27.2344 160.779 26.9961 159.725 26.5195C158.67 26.043 157.838 25.3047 157.229 24.3047C156.627 23.3047 156.326 22.0195 156.326 20.4492C156.326 18.8555 156.6 17.5469 157.146 16.5234C157.693 15.4922 158.459 14.7305 159.443 14.2383C160.428 13.7383 161.572 13.4883 162.877 13.4883ZM163.041 16.6055C162.502 16.6055 162.049 16.7773 161.682 17.1211C161.322 17.457 161.111 17.9883 161.049 18.7148H164.986C164.979 18.3242 164.9 17.9688 164.752 17.6484C164.604 17.3281 164.385 17.0742 164.096 16.8867C163.814 16.6992 163.463 16.6055 163.041 16.6055ZM179.752 13.4883C180.002 13.4883 180.264 13.5078 180.537 13.5469C180.811 13.5781 181.014 13.6055 181.146 13.6289L180.736 17.9531C180.588 17.9141 180.396 17.8828 180.162 17.8594C179.928 17.8281 179.6 17.8125 179.178 17.8125C178.889 17.8125 178.58 17.8398 178.252 17.8945C177.924 17.9492 177.611 18.0664 177.314 18.2461C177.025 18.418 176.787 18.6836 176.6 19.043C176.412 19.3945 176.318 19.8711 176.318 20.4727V27H171.736V13.7227H175.146L175.861 15.8438H176.084C176.326 15.4062 176.635 15.0117 177.01 14.6602C177.393 14.3008 177.818 14.0156 178.287 13.8047C178.764 13.5938 179.252 13.4883 179.752 13.4883Z" fill="#2B2B2B"/>
<path d="M89.2715 27V28H90.2715V27H89.2715ZM79.0996 27H78.0996V28H79.0996V27ZM79.0996 9.86719V8.86719H78.0996V9.86719H79.0996ZM89.2715 9.86719H90.2715V8.86719H89.2715V9.86719ZM89.2715 13.582V14.582H90.2715V13.582H89.2715ZM83.7285 13.582V12.582H82.7285V13.582H83.7285ZM83.7285 16.2773H82.7285V17.2773H83.7285V16.2773ZM88.8613 16.2773H89.8613V15.2773H88.8613V16.2773ZM88.8613 19.9922V20.9922H89.8613V19.9922H88.8613ZM83.7285 19.9922V18.9922H82.7285V19.9922H83.7285ZM83.7285 23.2266H82.7285V24.2266H83.7285V23.2266ZM89.2715 23.2266H90.2715V22.2266H89.2715V23.2266ZM89.2715 26H79.0996V28H89.2715V26ZM80.0996 27V9.86719H78.0996V27H80.0996ZM79.0996 10.8672H89.2715V8.86719H79.0996V10.8672ZM88.2715 9.86719V13.582H90.2715V9.86719H88.2715ZM89.2715 12.582H83.7285V14.582H89.2715V12.582ZM82.7285 13.582V16.2773H84.7285V13.582H82.7285ZM83.7285 17.2773H88.8613V15.2773H83.7285V17.2773ZM87.8613 16.2773V19.9922H89.8613V16.2773H87.8613ZM88.8613 18.9922H83.7285V20.9922H88.8613V18.9922ZM82.7285 19.9922V23.2266H84.7285V19.9922H82.7285ZM83.7285 24.2266H89.2715V22.2266H83.7285V24.2266ZM88.2715 23.2266V27H90.2715V23.2266H88.2715ZM94.8145 20.2266L95.66 20.7605L95.995 20.23L95.6631 19.6975L94.8145 20.2266ZM90.7598 13.7227V12.7227H88.9579L89.9112 14.2517L90.7598 13.7227ZM95.9629 13.7227L96.8425 13.2469L96.5589 12.7227H95.9629V13.7227ZM97.9785 17.4492L97.0989 17.925L97.9684 19.5325L98.8535 17.9335L97.9785 17.4492ZM100.041 13.7227V12.7227H99.4515L99.1661 13.2384L100.041 13.7227ZM105.256 13.7227L106.098 14.2615L107.083 12.7227H105.256V13.7227ZM101.096 20.2266L100.253 19.6877L99.909 20.226L100.253 20.7647L101.096 20.2266ZM105.42 27V28H107.245L106.263 26.4619L105.42 27ZM100.217 27L99.3425 27.4854L99.6282 28H100.217V27ZM97.9785 22.9688L98.8528 22.4833L97.9762 20.9046L97.1032 22.4853L97.9785 22.9688ZM95.752 27V28H96.342L96.6273 27.4835L95.752 27ZM90.5371 27L89.6916 26.4661L88.7229 28H90.5371V27ZM95.6631 19.6975L91.6084 13.1936L89.9112 14.2517L93.9659 20.7556L95.6631 19.6975ZM90.7598 14.7227H95.9629V12.7227H90.7598V14.7227ZM95.0833 14.1984L97.0989 17.925L98.8581 16.9735L96.8425 13.2469L95.0833 14.1984ZM98.8535 17.9335L100.916 14.2069L99.1661 13.2384L97.1036 16.965L98.8535 17.9335ZM100.041 14.7227H105.256V12.7227H100.041V14.7227ZM104.413 13.1838L100.253 19.6877L101.938 20.7654L106.098 14.2615L104.413 13.1838ZM100.253 20.7647L104.577 27.5381L106.263 26.4619L101.939 19.6885L100.253 20.7647ZM105.42 26H100.217V28H105.42V26ZM101.091 26.5146L98.8528 22.4833L97.1042 23.4542L99.3425 27.4854L101.091 26.5146ZM97.1032 22.4853L94.8766 26.5165L96.6273 27.4835L98.8539 23.4522L97.1032 22.4853ZM95.752 26H90.5371V28H95.752V26ZM91.3826 27.5339L95.66 20.7605L93.9689 19.6926L89.6916 26.4661L91.3826 27.5339ZM118.686 15.2578L117.87 15.836L117.871 15.8385L118.686 15.2578ZM119.307 24.1406L120.231 24.5217L120.232 24.5193L119.307 24.1406ZM117.572 26.4609L118.151 27.2764L118.153 27.2753L117.572 26.4609ZM113.494 27L113.152 27.9398L113.158 27.9417L113.494 27ZM112.416 26.4141L111.776 27.1824L111.786 27.1908L112.416 26.4141ZM111.701 25.6992L112.48 25.0715L112.179 24.6992H111.701V25.6992ZM111.561 25.6992V24.6992H110.424L110.569 25.8264L111.561 25.6992ZM111.654 26.6836L110.657 26.7501L110.657 26.7611L110.658 26.7721L111.654 26.6836ZM111.701 32.7656V33.7656H112.701V32.7656H111.701ZM107.119 32.7656H106.119V33.7656H107.119V32.7656ZM107.119 13.7227V12.7227H106.119V13.7227H107.119ZM110.846 13.7227L111.78 13.3659L111.534 12.7227H110.846V13.7227ZM111.49 15.4102L110.556 15.767L110.802 16.4102H111.49V15.4102ZM111.701 15.4102V16.4102H112.25L112.545 15.947L111.701 15.4102ZM112.498 14.4609L113.177 15.1951L113.187 15.1859L112.498 14.4609ZM113.635 13.7578L113.995 14.6908L114.003 14.6874L113.635 13.7578ZM111.889 18.3633L110.924 18.1001L110.921 18.1123L111.889 18.3633ZM111.701 19.9453L110.701 19.9206L110.701 19.933V19.9453H111.701ZM111.865 22.0898L110.89 22.3101L110.891 22.3135L111.865 22.0898ZM112.428 23.1797L111.742 23.9079L111.748 23.9133L111.754 23.9186L112.428 23.1797ZM114.818 17.8125L113.966 18.3351L113.972 18.345L114.818 17.8125ZM115.229 14.4883C116.379 14.4883 117.225 14.9258 117.87 15.836L119.501 14.6796C118.475 13.2304 117.015 12.4883 115.229 12.4883V14.4883ZM117.871 15.8385C118.537 16.7721 118.939 18.2248 118.939 20.332H120.939C120.939 18.0174 120.506 16.0873 119.5 14.6771L117.871 15.8385ZM118.939 20.332C118.939 21.7531 118.74 22.8852 118.381 23.762L120.232 24.5193C120.717 23.3335 120.939 21.9266 120.939 20.332H118.939ZM118.382 23.7595C118.016 24.6487 117.542 25.2548 116.992 25.6466L118.153 27.2753C119.072 26.6202 119.754 25.6794 120.231 24.5217L118.382 23.7595ZM116.994 25.6454C116.444 26.0356 115.82 26.2344 115.088 26.2344V28.2344C116.215 28.2344 117.248 27.9175 118.151 27.2764L116.994 25.6454ZM115.088 26.2344C114.54 26.2344 114.13 26.1652 113.83 26.0583L113.158 27.9417C113.733 28.1473 114.385 28.2344 115.088 28.2344V26.2344ZM113.836 26.0602C113.488 25.9336 113.231 25.7878 113.046 25.6373L111.786 27.1908C112.179 27.5091 112.641 27.7539 113.152 27.9398L113.836 26.0602ZM113.056 25.6458C112.817 25.4464 112.627 25.2544 112.48 25.0715L110.923 26.327C111.166 26.6285 111.453 26.9129 111.776 27.1823L113.056 25.6458ZM111.701 24.6992H111.561V26.6992H111.701V24.6992ZM110.569 25.8264C110.605 26.1083 110.634 26.4159 110.657 26.7501L112.652 26.6171C112.627 26.2481 112.594 25.8996 112.552 25.5721L110.569 25.8264ZM110.658 26.7721C110.686 27.0865 110.701 27.4659 110.701 27.9141H112.701C112.701 27.4247 112.685 26.9838 112.65 26.5951L110.658 26.7721ZM110.701 27.9141V32.7656H112.701V27.9141H110.701ZM111.701 31.7656H107.119V33.7656H111.701V31.7656ZM108.119 32.7656V13.7227H106.119V32.7656H108.119ZM107.119 14.7227H110.846V12.7227H107.119V14.7227ZM109.912 14.0795L110.556 15.767L112.424 15.0534L111.78 13.3659L109.912 14.0795ZM111.49 16.4102H111.701V14.4102H111.49V16.4102ZM112.545 15.947C112.715 15.679 112.925 15.4283 113.177 15.195L111.819 13.7268C111.446 14.0717 111.124 14.4538 110.858 14.8733L112.545 15.947ZM113.187 15.1859C113.395 14.9884 113.659 14.8206 113.995 14.6907L113.275 12.8249C112.72 13.0388 112.226 13.3397 111.809 13.7359L113.187 15.1859ZM114.003 14.6874C114.314 14.5643 114.715 14.4883 115.229 14.4883V12.4883C114.523 12.4883 113.862 12.592 113.266 12.8282L114.003 14.6874ZM113.506 16.0859C112.908 16.0859 112.307 16.2285 111.818 16.6284L113.084 18.1763C113.111 18.1543 113.213 18.0859 113.506 18.0859V16.0859ZM111.818 16.6284C111.353 17.0089 111.078 17.5365 110.924 18.1002L112.853 18.6264C112.934 18.3306 113.034 18.2177 113.084 18.1763L111.818 16.6284ZM110.921 18.1123C110.786 18.6332 110.718 19.2425 110.701 19.9206L112.701 19.97C112.715 19.3825 112.773 18.9371 112.857 18.6142L110.921 18.1123ZM110.701 19.9453V20.3086H112.701V19.9453H110.701ZM110.701 20.3086C110.701 21.0579 110.759 21.7305 110.89 22.3101L112.841 21.8696C112.753 21.4804 112.701 20.9656 112.701 20.3086H110.701ZM110.891 22.3135C111.03 22.9189 111.291 23.483 111.742 23.9079L113.113 22.4515C113.033 22.3764 112.92 22.2139 112.84 21.8662L110.891 22.3135ZM111.754 23.9186C112.254 24.3747 112.889 24.543 113.529 24.543V22.543C113.232 22.543 113.133 22.469 113.101 22.4407L111.754 23.9186ZM113.529 24.543C114.116 24.543 114.675 24.3697 115.137 23.9774L113.843 22.4523C113.79 22.4975 113.708 22.543 113.529 22.543V24.543ZM115.137 23.9774C115.603 23.5822 115.877 23.0248 116.039 22.4403L114.113 21.9034C114.01 22.272 113.893 22.41 113.843 22.4523L115.137 23.9774ZM116.039 22.4403C116.206 21.841 116.275 21.1112 116.275 20.2852H114.275C114.275 21.0216 114.211 21.5496 114.113 21.9034L116.039 22.4403ZM116.275 20.2852C116.275 19.0915 116.13 18.0193 115.665 17.28L113.972 18.345C114.116 18.5745 114.275 19.1507 114.275 20.2852H116.275ZM115.671 17.2899C115.188 16.5026 114.424 16.0859 113.506 16.0859V18.0859C113.744 18.0859 113.855 18.1537 113.966 18.3351L115.671 17.2899ZM127.146 27V28H128.146V27H127.146ZM122.564 27H121.564V28H122.564V27ZM122.564 8.76562V7.76562H121.564V8.76562H122.564ZM127.146 8.76562H128.146V7.76562H127.146V8.76562ZM127.146 26H122.564V28H127.146V26ZM123.564 27V8.76562H121.564V27H123.564ZM122.564 9.76562H127.146V7.76562H122.564V9.76562ZM126.146 8.76562V27H128.146V8.76562H126.146ZM139.123 26.7891L139.463 27.7294L139.471 27.7265L139.123 26.7891ZM133.697 26.7891L133.34 27.7232L133.351 27.7272L133.697 26.7891ZM130.229 23.2852L129.291 23.6344L129.294 23.6419L130.229 23.2852ZM130.545 16.6055L129.662 16.1366L129.659 16.142L130.545 16.6055ZM132.842 14.2852L132.373 13.402L132.37 13.4036L132.842 14.2852ZM142.146 16.6055L141.272 17.09L141.275 17.0951L142.146 16.6055ZM134.6 22.2539L133.63 22.4998L133.631 22.5033L134.6 22.2539ZM135.232 23.4375L134.545 24.164L134.555 24.1735L134.566 24.1827L135.232 23.4375ZM137.529 23.4375L138.216 24.1645L138.221 24.1595L138.226 24.1545L137.529 23.4375ZM138.139 22.2539L137.169 22.008L137.167 22.0183L138.139 22.2539ZM138.139 18.4336L137.168 18.6726L137.169 18.6796L137.171 18.6866L138.139 18.4336ZM137.518 17.2852L136.842 18.0224L136.852 18.0315L137.518 17.2852ZM134.857 17.7656L133.978 17.2901L133.973 17.2994L134.857 17.7656ZM142.002 20.332C142.002 21.3514 141.862 22.2193 141.602 22.951L143.487 23.6193C143.837 22.6322 144.002 21.5314 144.002 20.332H142.002ZM141.602 22.951C141.341 23.6872 140.973 24.28 140.509 24.7508L141.933 26.1555C142.624 25.4544 143.139 24.6018 143.487 23.6193L141.602 22.951ZM140.509 24.7508C140.04 25.2262 139.467 25.5945 138.775 25.8516L139.471 27.7265C140.42 27.3742 141.245 26.8519 141.933 26.1555L140.509 24.7508ZM138.783 25.8487C138.089 26.0997 137.282 26.2344 136.346 26.2344V28.2344C137.472 28.2344 138.516 28.0722 139.463 27.7294L138.783 25.8487ZM136.346 26.2344C135.489 26.2344 134.725 26.1022 134.043 25.8509L133.351 27.7272C134.279 28.0696 135.281 28.2344 136.346 28.2344V26.2344ZM134.054 25.855C133.384 25.5986 132.807 25.2279 132.314 24.7414L130.909 26.1649C131.603 26.8503 132.417 27.3702 133.34 27.7231L134.054 25.855ZM132.314 24.7414C131.832 24.2657 131.445 23.6681 131.163 22.9285L129.294 23.6419C129.668 24.621 130.203 25.4686 130.909 26.1649L132.314 24.7414ZM131.166 22.9359C130.895 22.2089 130.748 21.3464 130.748 20.332H128.748C128.748 21.5364 128.922 22.6426 129.291 23.6344L131.166 22.9359ZM130.748 20.332C130.748 18.9805 130.993 17.907 131.431 17.069L129.659 16.142C129.035 17.3352 128.748 18.746 128.748 20.332H130.748ZM131.428 17.0743C131.876 16.23 132.501 15.6021 133.314 15.1667L132.37 13.4036C131.199 14.0307 130.292 14.9497 129.662 16.1366L131.428 17.0743ZM133.311 15.1683C134.138 14.729 135.161 14.4883 136.416 14.4883V12.4883C134.905 12.4883 133.546 12.7788 132.373 13.402L133.311 15.1683ZM136.416 14.4883C137.547 14.4883 138.514 14.723 139.342 15.1667L140.286 13.4036C139.131 12.7849 137.832 12.4883 136.416 12.4883V14.4883ZM139.342 15.1667C140.159 15.6042 140.799 16.2371 141.272 17.09L143.021 16.121C142.369 14.9426 141.454 14.0287 140.286 13.4036L139.342 15.1667ZM141.275 17.0951C141.742 17.927 142.002 18.9908 142.002 20.332H144.002C144.002 18.7358 143.692 17.3152 143.018 16.1158L141.275 17.0951ZM133.4 20.332C133.4 21.1423 133.471 21.871 133.63 22.4998L135.569 22.008C135.463 21.5899 135.4 21.0374 135.4 20.332H133.4ZM133.631 22.5033C133.796 23.1413 134.08 23.7243 134.545 24.164L135.92 22.711C135.806 22.6038 135.669 22.3978 135.568 22.0045L133.631 22.5033ZM134.566 24.1827C135.081 24.6435 135.721 24.8359 136.393 24.8359V22.8359C136.111 22.8359 135.978 22.7628 135.899 22.6923L134.566 24.1827ZM136.393 24.8359C137.062 24.8359 137.708 24.644 138.216 24.1645L136.843 22.7105C136.788 22.7622 136.676 22.8359 136.393 22.8359V24.8359ZM138.226 24.1545C138.682 23.711 138.956 23.1257 139.111 22.4895L137.167 22.0183C137.071 22.4134 136.939 22.6171 136.832 22.7205L138.226 24.1545ZM139.108 22.4998C139.268 21.871 139.338 21.1423 139.338 20.332H137.338C137.338 21.0374 137.275 21.5899 137.169 22.008L139.108 22.4998ZM139.338 20.332C139.338 19.5231 139.268 18.7986 139.106 18.1806L137.171 18.6866C137.275 19.0842 137.338 19.6254 137.338 20.332H139.338ZM139.11 18.1946C138.953 17.5579 138.667 16.9707 138.183 16.5389L136.852 18.0315C136.946 18.1152 137.074 18.2937 137.168 18.6726L139.11 18.1946ZM138.193 16.548C137.682 16.0792 137.034 15.8984 136.369 15.8984V17.8984C136.673 17.8984 136.791 17.9755 136.842 18.0223L138.193 16.548ZM136.369 15.8984C135.881 15.8984 135.403 16.0008 134.972 16.2478C134.538 16.4966 134.211 16.8594 133.978 17.2901L135.737 18.2411C135.817 18.0937 135.897 18.0229 135.967 17.9826C136.041 17.9407 136.162 17.8984 136.369 17.8984V15.8984ZM133.973 17.2994C133.556 18.0909 133.4 19.1399 133.4 20.332H135.4C135.4 19.2585 135.55 18.5966 135.742 18.2319L133.973 17.2994ZM154.428 13.5469L154.286 14.5368L154.3 14.5388L154.314 14.5404L154.428 13.5469ZM155.037 13.6289L156.033 13.7233L156.12 12.8045L155.211 12.6441L155.037 13.6289ZM154.627 17.9531L154.372 18.9202L155.511 19.2199L155.622 18.0476L154.627 17.9531ZM154.053 17.8594L153.921 18.8506L153.937 18.8528L153.953 18.8544L154.053 17.8594ZM151.205 18.2461L151.716 19.1057L151.723 19.1016L151.205 18.2461ZM150.49 19.043L151.373 19.5136L151.377 19.5055L150.49 19.043ZM150.209 27V28H151.209V27H150.209ZM145.627 27H144.627V28H145.627V27ZM145.627 13.7227V12.7227H144.627V13.7227H145.627ZM149.037 13.7227L149.985 13.4033L149.755 12.7227H149.037V13.7227ZM149.752 15.8438L148.804 16.1631L149.034 16.8438H149.752V15.8438ZM149.975 15.8438V16.8438H150.564L150.85 16.3281L149.975 15.8438ZM150.9 14.6602L151.584 15.3897L151.585 15.3892L150.9 14.6602ZM152.178 13.8047L151.773 12.8902L151.767 12.8928L152.178 13.8047ZM153.643 14.4883C153.841 14.4883 154.055 14.5038 154.286 14.5368L154.569 12.5569C154.254 12.5119 153.945 12.4883 153.643 12.4883V14.4883ZM154.314 14.5404C154.584 14.5712 154.762 14.5958 154.863 14.6137L155.211 12.6441C155.047 12.6152 154.819 12.585 154.541 12.5533L154.314 14.5404ZM154.042 13.5345L153.631 17.8587L155.622 18.0476L156.033 13.7233L154.042 13.5345ZM154.881 16.9861C154.663 16.9285 154.414 16.8906 154.152 16.8643L153.953 18.8544C154.16 18.8751 154.294 18.8996 154.372 18.9202L154.881 16.9861ZM154.185 16.8681C153.885 16.8282 153.506 16.8125 153.068 16.8125V18.8125C153.475 18.8125 153.751 18.828 153.921 18.8506L154.185 16.8681ZM153.068 16.8125C152.717 16.8125 152.353 16.8457 151.978 16.9081L152.307 18.8809C152.589 18.834 152.842 18.8125 153.068 18.8125V16.8125ZM151.978 16.9081C151.52 16.9846 151.088 17.1482 150.687 17.3906L151.723 19.1016C151.916 18.9847 152.109 18.9139 152.307 18.8809L151.978 16.9081ZM150.694 17.3866C150.215 17.6712 149.859 18.0904 149.604 18.5804L151.377 19.5055C151.496 19.2768 151.617 19.1648 151.716 19.1056L150.694 17.3866ZM149.608 18.5724C149.314 19.124 149.209 19.7837 149.209 20.4727H151.209C151.209 19.9585 151.292 19.665 151.373 19.5136L149.608 18.5724ZM149.209 20.4727V27H151.209V20.4727H149.209ZM150.209 26H145.627V28H150.209V26ZM146.627 27V13.7227H144.627V27H146.627ZM145.627 14.7227H149.037V12.7227H145.627V14.7227ZM148.089 14.042L148.804 16.1631L150.7 15.5244L149.985 13.4033L148.089 14.042ZM149.752 16.8438H149.975V14.8438H149.752V16.8438ZM150.85 16.3281C151.04 15.9843 151.283 15.672 151.584 15.3897L150.216 13.9306C149.768 14.3515 149.394 14.8282 149.1 15.3594L150.85 16.3281ZM151.585 15.3892C151.889 15.1039 152.222 14.8812 152.588 14.7166L151.767 12.8928C151.196 13.1501 150.678 13.4977 150.216 13.9311L151.585 15.3892ZM152.582 14.7191C152.937 14.5622 153.288 14.4883 153.643 14.4883V12.4883C152.997 12.4883 152.372 12.6253 151.773 12.8903L152.582 14.7191ZM166.217 14.168L165.782 15.0683L165.788 15.0712L166.217 14.168ZM169.146 21.5977V22.5977H170.146V21.5977H169.146ZM160.955 21.5977V20.5977H159.897L159.957 21.6537L160.955 21.5977ZM161.729 23.3086L161.046 24.0393L161.052 24.0448L161.729 23.3086ZM166.135 23.7305L165.905 22.7572L165.903 22.7578L166.135 23.7305ZM168.279 22.9688H169.279V21.3965L167.855 22.0631L168.279 22.9688ZM168.279 26.2617L168.744 27.1473L169.279 26.8665V26.2617H168.279ZM157.229 24.3047L156.372 24.8202L156.375 24.8251L157.229 24.3047ZM157.146 16.5234L158.028 16.9947L158.03 16.9919L157.146 16.5234ZM159.443 14.2383L159.891 15.1327L159.896 15.1299L159.443 14.2383ZM161.682 17.1211L162.365 17.8516L162.365 17.8511L161.682 17.1211ZM161.049 18.7148L160.053 18.6291L159.959 19.7148H161.049V18.7148ZM164.986 18.7148V19.7148H166.007L165.986 18.6948L164.986 18.7148ZM164.096 16.8867L163.541 17.7188L163.552 17.7257L164.096 16.8867ZM162.877 14.4883C164.05 14.4883 165.008 14.6945 165.782 15.0683L166.652 13.2676C165.55 12.7352 164.282 12.4883 162.877 12.4883V14.4883ZM165.788 15.0712C166.54 15.4287 167.108 15.9576 167.514 16.6757L169.255 15.6915C168.646 14.6127 167.768 13.7978 166.646 13.2647L165.788 15.0712ZM167.514 16.6757C167.915 17.3845 168.146 18.3276 168.146 19.5586H170.146C170.146 18.0864 169.87 16.7796 169.255 15.6915L167.514 16.6757ZM168.146 19.5586V21.5977H170.146V19.5586H168.146ZM169.146 20.5977H160.955V22.5977H169.146V20.5977ZM159.957 21.6537C160.009 22.587 160.367 23.4054 161.046 24.0393L162.411 22.5779C162.136 22.3211 161.979 21.9989 161.954 21.5416L159.957 21.6537ZM161.052 24.0448C161.786 24.72 162.779 24.9766 163.861 24.9766V22.9766C163.068 22.9766 162.64 22.7878 162.405 22.5724L161.052 24.0448ZM163.861 24.9766C164.755 24.9766 165.592 24.8881 166.367 24.7032L165.903 22.7578C165.303 22.9009 164.624 22.9766 163.861 22.9766V24.9766ZM166.364 24.7037C167.135 24.5219 167.915 24.2435 168.703 23.8744L167.855 22.0631C167.175 22.3815 166.525 22.6109 165.905 22.7572L166.364 24.7037ZM167.279 22.9688V26.2617H169.279V22.9688H167.279ZM167.815 25.3761C167.262 25.6658 166.652 25.8819 165.98 26.0206L166.384 27.9794C167.226 27.8056 168.015 27.5295 168.744 27.1473L167.815 25.3761ZM165.98 26.0206C165.312 26.1582 164.429 26.2344 163.311 26.2344V28.2344C164.505 28.2344 165.535 28.1543 166.384 27.9794L165.98 26.0206ZM163.311 26.2344C162.095 26.2344 161.043 26.018 160.136 25.6082L159.313 27.4308C160.515 27.9742 161.854 28.2344 163.311 28.2344V26.2344ZM160.136 25.6082C159.267 25.2156 158.588 24.6147 158.082 23.7843L156.375 24.8251C157.087 25.9947 158.072 26.8704 159.313 27.4308L160.136 25.6082ZM158.085 23.7892C157.604 22.9897 157.326 21.8986 157.326 20.4492H155.326C155.326 22.1404 155.649 23.6196 156.372 24.8202L158.085 23.7892ZM157.326 20.4492C157.326 18.9615 157.583 17.8292 158.028 16.9947L156.265 16.0522C155.617 17.2646 155.326 18.7494 155.326 20.4492H157.326ZM158.03 16.9919C158.486 16.1328 159.104 15.526 159.891 15.1327L158.996 13.3439C157.814 13.935 156.901 14.8516 156.263 16.0549L158.03 16.9919ZM159.896 15.1299C160.717 14.713 161.701 14.4883 162.877 14.4883V12.4883C161.443 12.4883 160.139 12.7636 158.99 13.3467L159.896 15.1299ZM163.041 15.6055C162.268 15.6055 161.565 15.8607 160.998 16.3911L162.365 17.8511C162.533 17.694 162.736 17.6055 163.041 17.6055V15.6055ZM160.999 16.3906C160.389 16.9609 160.126 17.7724 160.053 18.6291L162.045 18.8005C162.096 18.2041 162.256 17.9532 162.365 17.8516L160.999 16.3906ZM161.049 19.7148H164.986V17.7148H161.049V19.7148ZM165.986 18.6948C165.976 18.1806 165.872 17.6867 165.659 17.228L163.845 18.0689C163.929 18.2508 163.981 18.4678 163.987 18.7348L165.986 18.6948ZM165.659 17.228C165.434 16.7412 165.091 16.3404 164.64 16.0478L163.552 17.7257C163.678 17.808 163.773 17.9151 163.845 18.0689L165.659 17.228ZM164.65 16.0547C164.168 15.7333 163.611 15.6055 163.041 15.6055V17.6055C163.315 17.6055 163.461 17.6652 163.541 17.7188L164.65 16.0547ZM180.537 13.5469L180.396 14.5368L180.41 14.5388L180.424 14.5404L180.537 13.5469ZM181.146 13.6289L182.142 13.7233L182.229 12.8045L181.32 12.6441L181.146 13.6289ZM180.736 17.9531L180.482 18.9202L181.621 19.2199L181.732 18.0476L180.736 17.9531ZM180.162 17.8594L180.03 18.8506L180.046 18.8528L180.063 18.8544L180.162 17.8594ZM177.314 18.2461L177.826 19.1057L177.832 19.1016L177.314 18.2461ZM176.6 19.043L177.482 19.5136L177.486 19.5055L176.6 19.043ZM176.318 27V28H177.318V27H176.318ZM171.736 27H170.736V28H171.736V27ZM171.736 13.7227V12.7227H170.736V13.7227H171.736ZM175.146 13.7227L176.094 13.4033L175.865 12.7227H175.146V13.7227ZM175.861 15.8438L174.914 16.1631L175.143 16.8438H175.861V15.8438ZM176.084 15.8438V16.8438H176.673L176.959 16.3281L176.084 15.8438ZM177.01 14.6602L177.694 15.3897L177.694 15.3892L177.01 14.6602ZM178.287 13.8047L177.882 12.8902L177.877 12.8928L178.287 13.8047ZM179.752 14.4883C179.95 14.4883 180.164 14.5038 180.396 14.5368L180.679 12.5569C180.363 12.5119 180.054 12.4883 179.752 12.4883V14.4883ZM180.424 14.5404C180.693 14.5712 180.871 14.5958 180.973 14.6137L181.32 12.6441C181.156 12.6152 180.928 12.585 180.651 12.5533L180.424 14.5404ZM180.151 13.5345L179.741 17.8587L181.732 18.0476L182.142 13.7233L180.151 13.5345ZM180.991 16.9861C180.772 16.9285 180.524 16.8906 180.262 16.8643L180.063 18.8544C180.269 18.8751 180.404 18.8996 180.482 18.9202L180.991 16.9861ZM180.294 16.8681C179.995 16.8282 179.615 16.8125 179.178 16.8125V18.8125C179.584 18.8125 179.861 18.828 180.03 18.8506L180.294 16.8681ZM179.178 16.8125C178.826 16.8125 178.462 16.8457 178.088 16.9081L178.416 18.8809C178.698 18.834 178.951 18.8125 179.178 18.8125V16.8125ZM178.088 16.9081C177.629 16.9846 177.197 17.1482 176.797 17.3906L177.832 19.1016C178.025 18.9847 178.219 18.9139 178.416 18.8809L178.088 16.9081ZM176.803 17.3866C176.325 17.6712 175.969 18.0904 175.713 18.5804L177.486 19.5055C177.606 19.2768 177.726 19.1648 177.826 19.1056L176.803 17.3866ZM175.717 18.5724C175.423 19.124 175.318 19.7837 175.318 20.4727H177.318C177.318 19.9585 177.401 19.665 177.482 19.5136L175.717 18.5724ZM175.318 20.4727V27H177.318V20.4727H175.318ZM176.318 26H171.736V28H176.318V26ZM172.736 27V13.7227H170.736V27H172.736ZM171.736 14.7227H175.146V12.7227H171.736V14.7227ZM174.199 14.042L174.914 16.1631L176.809 15.5244L176.094 13.4033L174.199 14.042ZM175.861 16.8438H176.084V14.8438H175.861V16.8438ZM176.959 16.3281C177.149 15.9843 177.393 15.672 177.694 15.3897L176.326 13.9306C175.877 14.3515 175.503 14.8282 175.209 15.3594L176.959 16.3281ZM177.694 15.3892C177.998 15.1039 178.332 14.8812 178.697 14.7166L177.877 12.8928C177.305 13.1501 176.787 13.4977 176.325 13.9311L177.694 15.3892ZM178.692 14.7191C179.046 14.5622 179.397 14.4883 179.752 14.4883V12.4883C179.107 12.4883 178.481 12.6253 177.882 12.8903L178.692 14.7191Z" fill="white"/>
<path fill-rule="evenodd" clip-rule="evenodd" d="M1.41075 10.0656C1.41075 10.0656 1.25753 9.37192 1.07542 8.54745C0.772793 7.17728 1.39949 5.77013 2.62157 5.07584C3.41583 4.62345 4.27283 3.91353 4.89526 2.81119" fill="#BC83FB"/>
<path d="M1.41075 10.0656C1.41075 10.0656 1.25753 9.37192 1.07542 8.54745C0.772793 7.17728 1.39949 5.77013 2.62157 5.07584C3.41583 4.62345 4.27283 3.91353 4.89526 2.81119" stroke="black" stroke-width="0.0218637" stroke-miterlimit="1.5" stroke-linecap="round" stroke-linejoin="round"/>
<path fill-rule="evenodd" clip-rule="evenodd" d="M10.9052 10.0656C10.9052 10.0656 11.0006 9.63917 11.1219 9.09682C11.3774 7.95428 10.8321 6.78292 9.79223 6.24058C8.74947 5.69455 7.63253 4.67557 7.53438 2.81119L7.51758 9.08418L10.9052 10.0656Z" fill="#BC83FB" stroke="black" stroke-width="0.0218637" stroke-miterlimit="1.5" stroke-linecap="round" stroke-linejoin="round"/>
<path fill-rule="evenodd" clip-rule="evenodd" d="M5.53848 1.59476C5.5385 1.59472 5.6964 0.869566 6.51084 0.864521C6.96183 0.861734 7.35837 1.1623 7.48318 1.59466C7.4832 1.59468 7.84656 4.27122 8.03878 5.68708C8.10991 6.21096 8.34413 6.69935 8.70838 7.08331C9.98726 8.43078 12.8306 12.0759 10.042 15.4829C10.042 15.4829 9.82237 12.6011 6.33621 12.6011C5.72307 12.6011 6.82981 12.6011 6.21669 12.6011C2.73053 12.6011 2.27439 15.4829 2.27439 15.4829C-1.23055 11.2008 4.46923 4.04409 5.53848 1.59476Z" fill="#BC83FB" stroke="black" stroke-width="0.0269144" stroke-miterlimit="1.5" stroke-linecap="round" stroke-linejoin="round"/>
<path fill-rule="evenodd" clip-rule="evenodd" d="M9.74497 16.6152C10.9233 17.1228 11.3265 18.5708 11.0078 19.7752C11.0076 19.7756 11.0075 19.7761 11.0075 19.7765C9.50966 27.4711 5.6348 34.2557 4.0595 34.7851C4.0595 34.7851 4.34611 32.8894 4.48856 31.947C4.55117 31.533 4.52912 31.1105 4.42371 30.7052C4.00678 29.1192 3.02301 27.7824 2.62806 26.255C2.03446 23.9594 1.87392 21.4671 1.09994 18.6666C0.870648 17.8428 1.24681 16.9707 2.00412 16.5705C2.00335 16.569 2.00335 16.569 2.00335 16.569C3.07948 16.3627 2.16415 15.1617 2.11277 14.2765C2.9471 11.7744 3.62179 10.9158 5.8345 10.886C8.23375 10.669 9.58382 12.5285 10.2043 14.2332C10 16.3868 9.62504 16.2 9.74497 16.6152Z" fill="#BC83FB"/>
<path fill-rule="evenodd" clip-rule="evenodd" d="M10.145 23.3086C7.94426 32.0671 9.13135 32.9141 9.13135 32.9141L7.54688 31.4287" fill="#5A007E"/>
<path d="M10.145 23.3086C7.94426 32.0671 9.13135 32.9141 9.13135 32.9141L7.54688 31.4287" stroke="black" stroke-width="0.0269144" stroke-miterlimit="1.5" stroke-linecap="round" stroke-linejoin="round"/>
<path fill-rule="evenodd" clip-rule="evenodd" d="M2.4547 25.525C2.59411 29.3131 3.33188 31.4889 2.00391 32.1573C2.00391 32.1573 3.40155 32.1163 4.1144 30.9648" fill="#5A007E"/>
<path d="M2.4547 25.525C2.59411 29.3131 3.33188 31.4889 2.00391 32.1573C2.00391 32.1573 3.40155 32.1163 4.1144 30.9648" stroke="black" stroke-width="0.0269144" stroke-miterlimit="1.5" stroke-linecap="round" stroke-linejoin="round"/>
<path fill-rule="evenodd" clip-rule="evenodd" d="M9.16025 16.994L10.2078 17.6311C10.5137 17.8171 10.6656 18.1778 10.5847 18.526C10.1237 20.4916 8.58674 26.8494 7.57737 28.6698L7.54789 28.7786L7.44725 29.1549C7.36244 29.557 7.27008 30.0419 7.27563 29.7965L7.44725 29.1549C7.49142 28.9398 7.53402 28.7481 7.55773 28.7065L7.57737 28.6698C8.90607 23.7598 10.0051 20.0943 7.43064 18.088C8.32608 17.9333 8.90158 17.5809 9.16025 16.994Z" fill="#D8B6FF"/>
<path fill-rule="evenodd" clip-rule="evenodd" d="M6.0703 1.98459C6.0872 1.59853 5.41229 3.37715 5.36991 3.51144C4.18327 7.27273 0.984762 9.50775 2.3067 13.9127C2.31848 13.952 2.4452 13.6928 2.69791 13.2454C3.41527 11.975 5.35907 11.6184 5.35907 11.6184C1.66071 8.74373 5.94271 4.8994 6.0703 1.98459Z" fill="#5A007E"/>
<path fill-rule="evenodd" clip-rule="evenodd" d="M6.7806 2.21924C6.87408 1.84424 7.03689 3.02131 7.01074 3.15967C6.32241 6.80254 11.8751 9.94955 9.9564 14.1474C9.94804 14.1657 9.81044 13.5082 9.43296 13.013C9.04124 12.4991 8.40927 12.1463 8.40927 12.1463C10.4658 9.8448 5.56514 7.09496 6.7806 2.21924Z" fill="#D8B6FF"/>
<path fill-rule="evenodd" clip-rule="evenodd" d="M4.40579 17.9672C1.92799 20.011 4.75643 28.6499 5.04239 32.1833C5.04551 32.222 5.03231 32.2593 5.02627 32.2956C4.96283 32.6768 4.96712 31.6368 4.95054 31.497C4.80849 30.3 4.17593 28.5293 3.47729 27.0568C2.75225 25.5286 2.63777 23.151 2.4702 21.5168C2.198 18.8618 1.28022 18.1863 3.01871 16.852C3.02359 16.8482 3.07244 16.8696 3.15023 16.9086C3.34247 17.4224 3.76004 17.7679 4.40579 17.9672Z" fill="#5A007E"/>
<path fill-rule="evenodd" clip-rule="evenodd" d="M4.55207 18.0102L4.61143 18.0245C4.0768 18.7955 3.38713 21.5183 4.64931 28.9782C4.34117 27.157 2.66101 20.2649 4.51372 17.9992L4.55207 18.0102Z" fill="#D8B6FF"/>
<path fill-rule="evenodd" clip-rule="evenodd" d="M4.71641 18.0498C5.10705 18.1353 5.56632 18.1782 6.09438 18.1811C4.65229 18.8745 3.90241 19.8782 5.24977 26.7607C5.64286 28.7688 5.02925 30.7312 5.04275 32.1834C5.04312 32.2222 5.03267 32.2593 5.02663 32.2956C4.9632 32.6768 4.96748 31.6368 4.9509 31.497C4.48972 26.037 3.74281 21.2327 4.71641 18.0498Z" fill="#5A007E"/>
<path d="M9.74507 16.6152C10.9234 17.1228 11.3266 18.5708 11.0078 19.7752C11.0077 19.7757 11.0076 19.7761 11.0076 19.7765C9.50975 27.4711 5.6349 34.2557 4.05959 34.7851C4.05959 34.7851 4.3462 32.8894 4.48866 31.947C4.55127 31.533 4.52921 31.1106 4.4238 30.7052C4.00688 29.1192 3.02311 27.7824 2.62816 26.255C2.06027 24.0588 1.88873 21.6827 1.19724 19.0288C0.929379 18.0019 1.4465 16.9326 2.41886 16.5028C2.41809 16.501 2.41809 16.501 2.41809 16.501" stroke="black" stroke-width="0.0269144" stroke-miterlimit="1.5" stroke-linecap="round" stroke-linejoin="round"/>
<path fill-rule="evenodd" clip-rule="evenodd" d="M6.7116 29.6001C6.569 30.1685 6.80417 30.7269 7.23645 30.8463C7.66873 30.9658 8.13545 30.6014 8.27805 30.033C8.42065 29.4647 8.18545 28.9063 7.75318 28.7869C7.3209 28.6674 6.85419 29.0318 6.7116 29.6001Z" fill="#D8B6FF" stroke="black" stroke-width="0.0269144" stroke-miterlimit="1.5" stroke-linecap="round" stroke-linejoin="round"/>
<path fill-rule="evenodd" clip-rule="evenodd" d="M7.58195 26.8781C7.38546 27.5949 7.66833 28.3095 8.21324 28.4729C8.75814 28.6363 9.36007 28.1871 9.55656 27.4703C9.75305 26.7535 9.47018 26.0389 8.92527 25.8755C8.38037 25.712 7.77844 26.1613 7.58195 26.8781Z" fill="#D8B6FF" stroke="black" stroke-width="0.0269144" stroke-miterlimit="1.5" stroke-linecap="round" stroke-linejoin="round"/>
<path fill-rule="evenodd" clip-rule="evenodd" d="M6.00188 31.5553C5.73563 31.9956 5.79626 32.5146 6.13716 32.7135C6.47807 32.9123 6.97101 32.7162 7.23725 32.2759C7.5035 31.8355 7.44289 31.3166 7.10198 31.1177C6.76106 30.9188 6.26814 31.1149 6.00188 31.5553Z" fill="#D8B6FF" stroke="black" stroke-width="0.0269144" stroke-miterlimit="1.5" stroke-linecap="round" stroke-linejoin="round"/>
<path fill-rule="evenodd" clip-rule="evenodd" d="M4.86309 33.1671C4.52341 33.4766 4.44718 33.9206 4.69296 34.1581C4.93874 34.3955 5.41407 34.3371 5.75373 34.0276C6.09341 33.7182 6.16963 33.2742 5.92385 33.0367C5.67807 32.7992 5.20274 32.8577 4.86309 33.1671Z" fill="#D8B6FF" stroke="black" stroke-width="0.0269144" stroke-miterlimit="1.5" stroke-linecap="round" stroke-linejoin="round"/>
<path d="M5.89844 15.8162C5.89844 15.8162 5.89844 15.8163 5.89846 15.8163C5.96144 15.9851 6.12338 16.0972 6.30454 16.0974C6.48573 16.0976 6.6479 15.9858 6.71122 15.8171C6.71246 15.8139 6.71309 15.8122 6.71309 15.8122" stroke="black" stroke-width="0.00980293" stroke-miterlimit="1.5" stroke-linecap="round" stroke-linejoin="round"/>
<path d="M7.4707 14.7292C7.4707 14.7292 7.50992 14.7022 7.57121 14.66C7.97694 14.3806 8.53108 14.4607 8.83996 14.8433C8.86603 14.8756 8.88159 14.8949 8.88159 14.8949" stroke="black" stroke-width="0.0168187" stroke-miterlimit="1.5" stroke-linecap="round" stroke-linejoin="round"/>
<path d="M5.18514 14.7582C5.18514 14.7582 5.06129 14.6943 4.90598 14.6142C4.54193 14.4266 4.09775 14.4955 3.80825 14.7846C3.71949 14.8732 3.6543 14.9383 3.6543 14.9383" stroke="black" stroke-width="0.0168187" stroke-miterlimit="1.5" stroke-linecap="round" stroke-linejoin="round"/>
</svg>
