<svg width="24" height="24" viewBox="0 0 24 24" fill="none" xmlns="http://www.w3.org/2000/svg">
<path d="M20.25 0H2.25C1.0125 0 0 1.0125 0 2.25V21.75C0 22.9875 1.0125 24 2.25 24H20.25C21.4875 24 22.5 22.9875 22.5 21.75V2.25C22.5 1.0125 21.4875 0 20.25 0ZM19.5 21H3V3H19.5V21ZM6 13.5H16.5V15H6V13.5ZM6 16.5H16.5V18H6V16.5ZM7.5 6.75C7.5001 6.45443 7.55841 6.16177 7.67161 5.88873C7.78482 5.6157 7.95069 5.36763 8.15976 5.1587C8.36883 4.94977 8.61701 4.78406 8.89012 4.67104C9.16323 4.55802 9.45593 4.4999 9.7515 4.5C10.0471 4.5001 10.3397 4.55841 10.6128 4.67162C10.8858 4.78482 11.1339 4.95069 11.3428 5.15976C11.5517 5.36883 11.7174 5.61701 11.8305 5.89012C11.9435 6.16323 12.0016 6.45593 12.0015 6.7515C12.0013 7.34844 11.764 7.92084 11.3417 8.3428C10.9195 8.76476 10.3469 9.0017 9.75 9.0015C9.15306 9.0013 8.58066 8.76398 8.1587 8.34174C7.73674 7.9195 7.4998 7.34694 7.5 6.75ZM11.25 9H8.25C7.0125 9 6 9.675 6 10.5V12H13.5V10.5C13.5 9.675 12.4875 9 11.25 9Z" fill="#5A007E"/>
</svg>
