<svg width="24" height="24" viewBox="0 0 24 24" fill="none" xmlns="http://www.w3.org/2000/svg">
<path d="M4 6.25C4 5.65326 4.23705 5.08097 4.65901 4.65901C5.08097 4.23705 5.65326 4 6.25 4H14.75C15.3467 4 15.919 4.23705 16.341 4.65901C16.7629 5.08097 17 5.65326 17 6.25V14H20.5V17.25C20.5 18.112 20.1576 18.9386 19.5481 19.5481C18.9386 20.1576 18.112 20.5 17.25 20.5H6.25C5.65326 20.5 5.08097 20.2629 4.65901 19.841C4.23705 19.419 4 18.8467 4 18.25V6.25ZM17 19H17.25C17.7141 19 18.1592 18.8156 18.4874 18.4874C18.8156 18.1592 19 17.7141 19 17.25V15.5H17V19ZM7.75 8C7.55109 8 7.36032 8.07902 7.21967 8.21967C7.07902 8.36032 7 8.55109 7 8.75C7 8.94891 7.07902 9.13968 7.21967 9.28033C7.36032 9.42098 7.55109 9.5 7.75 9.5H13.25C13.4489 9.5 13.6397 9.42098 13.7803 9.28033C13.921 9.13968 14 8.94891 14 8.75C14 8.55109 13.921 8.36032 13.7803 8.21967C13.6397 8.07902 13.4489 8 13.25 8H7.75ZM7.75 11.5C7.55109 11.5 7.36032 11.579 7.21967 11.7197C7.07902 11.8603 7 12.0511 7 12.25C7 12.4489 7.07902 12.6397 7.21967 12.7803C7.36032 12.921 7.55109 13 7.75 13H13.25C13.4489 13 13.6397 12.921 13.7803 12.7803C13.921 12.6397 14 12.4489 14 12.25C14 12.0511 13.921 11.8603 13.7803 11.7197C13.6397 11.579 13.4489 11.5 13.25 11.5H7.75ZM7.75 15C7.55109 15 7.36032 15.079 7.21967 15.2197C7.07902 15.3603 7 15.5511 7 15.75C7 15.9489 7.07902 16.1397 7.21967 16.2803C7.36032 16.421 7.55109 16.5 7.75 16.5H10.25C10.4489 16.5 10.6397 16.421 10.7803 16.2803C10.921 16.1397 11 15.9489 11 15.75C11 15.5511 10.921 15.3603 10.7803 15.2197C10.6397 15.079 10.4489 15 10.25 15H7.75Z" fill="#5A007E"/>
</svg>
