<svg width="21" height="21" viewBox="0 0 21 21" fill="none" xmlns="http://www.w3.org/2000/svg">
<path d="M20.8474 20.1109L17.2407 16.5042C18.8207 14.7499 19.7917 12.437 19.7917 9.8958C19.7917 4.43931 15.3524 0 9.89585 0C4.43931 0 0 4.43931 0 9.89585C0 15.3524 4.43931 19.7917 9.89585 19.7917C12.437 19.7917 14.7499 18.8207 16.5042 17.2407L20.1109 20.8474C20.2127 20.9491 20.346 21 20.4792 21C20.6125 21 20.7457 20.9491 20.8475 20.8474C21.0509 20.6439 21.0509 20.3144 20.8474 20.1109ZM9.89585 18.75C5.01406 18.75 1.0417 14.7781 1.0417 9.89585C1.0417 5.01358 5.01406 1.04165 9.89585 1.04165C14.7776 1.04165 18.75 5.01353 18.75 9.89585C18.75 14.7782 14.7776 18.75 9.89585 18.75Z" fill="#737791"/>
</svg>
