<svg width="24" height="22" viewBox="0 0 24 22" fill="none" xmlns="http://www.w3.org/2000/svg">
<g clip-path="url(#clip0_7788_1668)">
<path d="M6.375 18.4648L3.625 17.8667C3.375 17.8168 3.175 17.6879 3.025 17.4799C2.875 17.2725 2.81667 17.0443 2.85 16.795L3.125 13.9788L1.25 11.8355C1.08333 11.6528 1 11.4368 1 11.1876C1 10.9384 1.08333 10.7224 1.25 10.5396L3.125 8.39631L2.85 5.58012C2.81667 5.3309 2.875 5.10261 3.025 4.89526C3.175 4.68724 3.375 4.55831 3.625 4.50847L6.375 3.91034L7.825 1.46798C7.95833 1.25199 8.14167 1.11076 8.375 1.04431C8.60833 0.977847 8.84167 0.986154 9.075 1.06923L11.675 2.1658L14.275 1.06923C14.5083 0.986154 14.7417 0.977847 14.975 1.04431C15.2083 1.11076 15.3917 1.25199 15.525 1.46798L16.975 3.91034L19.725 4.50847C19.975 4.55831 20.175 4.68724 20.325 4.89526C20.475 5.10261 20.5333 5.3309 20.5 5.58012L20.225 8.39631L22.1 10.5396C22.2667 10.7224 22.35 10.9384 22.35 11.1876C22.35 11.4368 22.2667 11.6528 22.1 11.8355L20.225 13.9788L20.5 16.795C20.5333 17.0443 20.475 17.2725 20.325 17.4799C20.175 17.6879 19.975 17.8168 19.725 17.8667L16.975 18.4648L15.525 20.9072C15.3917 21.1232 15.2083 21.2644 14.975 21.3308C14.7417 21.3973 14.5083 21.389 14.275 21.3059L11.675 20.2094L9.075 21.3059C8.84167 21.389 8.60833 21.3973 8.375 21.3308C8.14167 21.2644 7.95833 21.1232 7.825 20.9072L6.375 18.4648ZM9.925 14.0287C10.1083 14.2114 10.3417 14.3028 10.625 14.3028C10.9083 14.3028 11.1417 14.2114 11.325 14.0287L15.575 9.79194C15.775 9.59257 15.875 9.35564 15.875 9.08116C15.875 8.80735 15.775 8.57076 15.575 8.37139C15.375 8.17201 15.1377 8.07232 14.863 8.07232C14.5877 8.07232 14.35 8.17201 14.15 8.37139L10.625 11.8854L9.175 10.4648C8.975 10.2821 8.73767 10.1947 8.463 10.2027C8.18767 10.2113 7.95833 10.307 7.775 10.4898C7.59167 10.6725 7.5 10.9051 7.5 11.1876C7.5 11.47 7.59167 11.7026 7.775 11.8854L9.925 14.0287Z" fill="#27AE60"/>
</g>
<defs>
<clipPath id="clip0_7788_1668">
<rect width="24" height="20.4951" fill="white" transform="translate(0 0.827148)"/>
</clipPath>
</defs>
</svg>
