<svg width="24" height="24" viewBox="0 0 24 24" fill="none" xmlns="http://www.w3.org/2000/svg">
<path d="M9.1 9.25L4.05 6.425L11.025 2.55C11.325 2.36667 11.65 2.275 12 2.275C12.35 2.275 12.675 2.36667 12.975 2.55L19.95 6.425L14.9 9.25C14.5333 8.86667 14.1043 8.56233 13.613 8.337C13.121 8.11233 12.5833 8 12 8C11.4167 8 10.879 8.11233 10.387 8.337C9.89567 8.56233 9.46667 8.86667 9.1 9.25ZM11 21.45L4.025 17.575C3.70833 17.3917 3.45833 17.1457 3.275 16.837C3.09167 16.529 3 16.1917 3 15.825V8.125L8.125 11C8.075 11.15 8.04167 11.3083 8.025 11.475C8.00833 11.6417 8 11.8167 8 12C8 12.9333 8.28333 13.754 8.85 14.462C9.41667 15.1707 10.1333 15.6417 11 15.875V21.45ZM12 14C11.45 14 10.9793 13.804 10.588 13.412C10.196 13.0207 10 12.55 10 12C10 11.45 10.196 10.979 10.588 10.587C10.9793 10.1957 11.45 10 12 10C12.55 10 13.021 10.1957 13.413 10.587C13.8043 10.979 14 11.45 14 12C14 12.55 13.8043 13.0207 13.413 13.412C13.021 13.804 12.55 14 12 14ZM13 21.45V15.875C13.8667 15.6417 14.5833 15.1707 15.15 14.462C15.7167 13.754 16 12.9333 16 12C16 11.8167 15.9917 11.646 15.975 11.488C15.9583 11.3293 15.925 11.1667 15.875 11L21 8.125V15.825C21 16.1917 20.9083 16.529 20.725 16.837C20.5417 17.1457 20.2917 17.3917 19.975 17.575L13 21.45Z" fill="#7A6981"/>
</svg>
